<?xml version="1.0" encoding="UTF-8"?>
<!DOCTYPE svg PUBLIC "-//W3C//DTD SVG 1.1//EN" "http://www.w3.org/Graphics/SVG/1.1/DTD/svg11.dtd">
<svg xmlns="http://www.w3.org/2000/svg" version="1.1" width="400px" height="59px" style="shape-rendering:geometricPrecision; text-rendering:geometricPrecision; image-rendering:optimizeQuality; fill-rule:evenodd; clip-rule:evenodd" xmlns:xlink="http://www.w3.org/1999/xlink">
<g><path style="opacity:0.161" fill="#db9eca" d="M -0.5,-0.5 C 0.166667,-0.5 0.833333,-0.5 1.5,-0.5C 1.5,0.166667 1.5,0.833333 1.5,1.5C 0.903527,2.93538 0.903527,4.60204 1.5,6.5C 0.833333,5.83333 0.166667,5.16667 -0.5,4.5C -0.5,2.83333 -0.5,1.16667 -0.5,-0.5 Z"/></g>
<g><path style="opacity:0.812" fill="#c061a4" d="M 14.5,2.5 C 19.8437,2.33398 25.1771,2.50065 30.5,3C 32.3197,3.20041 33.653,4.03374 34.5,5.5C 27.7881,4.06154 21.1215,3.06154 14.5,2.5 Z"/></g>
<g><path style="opacity:1" fill="#ab3185" d="M 1.5,1.5 C 5.7352,2.43596 10.0685,2.76929 14.5,2.5C 21.1215,3.06154 27.7881,4.06154 34.5,5.5C 39.4852,7.15187 42.8186,10.4852 44.5,15.5C 44.38,16.5862 43.7133,17.2528 42.5,17.5C 39.0117,16.2952 35.6784,16.2952 32.5,17.5C 29.8333,17.1667 27.1667,16.8333 24.5,16.5C 24.5,15.8333 24.1667,15.5 23.5,15.5C 22.791,14.596 21.791,14.2627 20.5,14.5C 18.7761,14.4607 18.4427,14.794 19.5,15.5C 20.7804,16.9313 22.4471,17.5979 24.5,17.5C 27.4552,18.1587 30.4552,18.4921 33.5,18.5C 34.5676,19.4345 35.901,19.7678 37.5,19.5C 37.5394,20.5832 37.8728,21.5832 38.5,22.5C 37.0508,23.1719 35.7175,23.8386 34.5,24.5C 32.0971,24.552 29.7638,24.2186 27.5,23.5C 25.7857,22.2616 23.7857,21.595 21.5,21.5C 12.6484,19.4081 5.98172,14.4081 1.5,6.5C 0.903527,4.60204 0.903527,2.93538 1.5,1.5 Z"/></g>
<g><path style="opacity:0.651" fill="#c775ae" d="M 386.5,5.5 C 386.735,4.90326 387.235,4.56993 388,4.5C 391.078,5.13388 393.911,6.13388 396.5,7.5C 393.061,7.21223 389.728,6.54556 386.5,5.5 Z"/></g>
<g><path style="opacity:1" fill="#aa2f84" d="M 257.5,11.5 C 257.427,13.0269 258.094,14.0269 259.5,14.5C 264.052,24.1303 262.052,32.2969 253.5,39C 251.975,40.0086 250.308,40.5086 248.5,40.5C 244.131,40.5328 239.798,40.1995 235.5,39.5C 231.105,37.4378 228.105,34.1045 226.5,29.5C 226.413,24.4635 226.746,19.4635 227.5,14.5C 229.587,13.4154 230.92,11.7488 231.5,9.5C 237.945,5.20815 244.945,4.37482 252.5,7C 254.063,8.73599 255.73,10.236 257.5,11.5 Z M 241.5,14.5 C 245.453,13.9807 248.453,15.3141 250.5,18.5C 251.627,21.8094 251.627,25.1427 250.5,28.5C 247.865,31.4811 244.532,32.8144 240.5,32.5C 238.833,31.5 237.5,30.1667 236.5,28.5C 235.167,25.1667 235.167,21.8333 236.5,18.5C 237.167,17.5 237.833,16.5 238.5,15.5C 239.609,15.4431 240.609,15.1098 241.5,14.5 Z"/></g>
<g><path style="opacity:1" fill="#ab3285" d="M 384.5,5.5 C 385.167,5.5 385.833,5.5 386.5,5.5C 389.728,6.54556 393.061,7.21223 396.5,7.5C 397.586,7.61998 398.253,8.28665 398.5,9.5C 398.248,11.0729 397.582,12.4062 396.5,13.5C 395.609,14.1098 394.609,14.4431 393.5,14.5C 393.389,13.8826 393.056,13.3826 392.5,13C 389.854,12.5026 387.187,12.3359 384.5,12.5C 384.232,14.099 384.566,15.4324 385.5,16.5C 390.787,17.6998 395.453,20.0331 399.5,23.5C 399.5,27.5 399.5,31.5 399.5,35.5C 394.736,41.0268 388.736,42.8602 381.5,41C 378.607,40.0592 376.274,38.3926 374.5,36C 374.808,34.5405 375.475,33.3739 376.5,32.5C 377.605,31.3995 378.938,30.7329 380.5,30.5C 382.554,31.6086 384.721,32.6086 387,33.5C 390.292,32.4487 391.125,30.4487 389.5,27.5C 387.786,26.2616 385.786,25.595 383.5,25.5C 380.733,25.1298 378.733,23.7964 377.5,21.5C 377.335,18.1501 377.502,14.8168 378,11.5C 380.063,9.26589 382.229,7.26589 384.5,5.5 Z"/></g>
<g><path style="opacity:0.989" fill="#1b8ed2" d="M 58.5,8.5 C 58.5,11.1667 58.5,13.8333 58.5,16.5C 58.5,17.1667 58.1667,17.5 57.5,17.5C 56.5041,17.5858 55.6708,17.2524 55,16.5C 53.951,18.1066 52.451,18.7733 50.5,18.5C 48.5891,18.4257 47.4224,17.4257 47,15.5C 45.5,7.66667 48.6667,4.5 56.5,6C 57.3805,6.7083 58.0472,7.54163 58.5,8.5 Z"/></g>
<g><path style="opacity:1" fill="#a92b83" d="M 210.5,5.5 C 220.332,6.5014 224.166,11.8347 222,21.5C 220.506,24.3135 218.34,26.3135 215.5,27.5C 215.427,29.0269 216.094,30.0269 217.5,30.5C 217.253,33.505 218.253,36.005 220.5,38C 218.098,38.8141 215.765,38.6474 213.5,37.5C 212.94,35.6228 211.773,33.6228 210,31.5C 209.617,32.056 209.117,32.3893 208.5,32.5C 207.662,32.1583 207.328,31.4916 207.5,30.5C 207.539,29.2438 207.039,28.2438 206,27.5C 205.501,31.8206 205.334,36.1539 205.5,40.5C 202.833,40.5 200.167,40.5 197.5,40.5C 197.5,29.1667 197.5,17.8333 197.5,6.5C 202.032,6.81822 206.366,6.48489 210.5,5.5 Z M 206.5,14.5 C 207.5,14.5 208.5,14.5 209.5,14.5C 211.28,15.9899 211.946,17.9899 211.5,20.5C 211.5,20.8333 211.5,21.1667 211.5,21.5C 209.833,21.5 208.167,21.5 206.5,21.5C 206.5,19.1667 206.5,16.8333 206.5,14.5 Z"/></g>
<g><path style="opacity:1" fill="#ab3285" d="M 329.5,16.5 C 330.244,20.1185 330.577,23.7852 330.5,27.5C 326.952,38.6189 319.285,43.1189 307.5,41C 302.412,39.4076 298.745,36.2409 296.5,31.5C 296.024,27.0065 295.358,22.6732 294.5,18.5C 294.833,17.8333 295.167,17.1667 295.5,16.5C 296.906,16.0269 297.573,15.0269 297.5,13.5C 298.833,12.8333 299.833,11.8333 300.5,10.5C 301.894,8.29181 303.894,6.79181 306.5,6C 317.255,3.28726 324.922,6.78726 329.5,16.5 Z M 320.5,19.5 C 320.758,23.3721 320.091,27.0388 318.5,30.5C 313.633,33.4608 309.3,32.7941 305.5,28.5C 304.167,25.1667 304.167,21.8333 305.5,18.5C 310.81,12.9913 315.81,13.3247 320.5,19.5 Z"/></g>
<g><path style="opacity:0.494" fill="#e3bbda" d="M 133.5,6.5 C 130.167,6.5 126.833,6.5 123.5,6.5C 123.5,17.8333 123.5,29.1667 123.5,40.5C 122.505,29.012 122.172,17.3453 122.5,5.5C 126.371,5.18503 130.038,5.51836 133.5,6.5 Z"/></g>
<g><path style="opacity:1" fill="#a72681" d="M 133.5,6.5 C 133.5,17.8333 133.5,29.1667 133.5,40.5C 130.167,40.5 126.833,40.5 123.5,40.5C 123.5,29.1667 123.5,17.8333 123.5,6.5C 126.833,6.5 130.167,6.5 133.5,6.5 Z"/></g>
<g><path style="opacity:0.561" fill="#ddaace" d="M 168.5,6.5 C 176.65,5.50728 184.983,5.17395 193.5,5.5C 193.5,8.83333 193.5,12.1667 193.5,15.5C 191.167,15.5 188.833,15.5 186.5,15.5C 186.826,24.0168 186.493,32.3501 185.5,40.5C 185.5,31.8333 185.5,23.1667 185.5,14.5C 187.833,14.5 190.167,14.5 192.5,14.5C 192.5,12.1667 192.5,9.83333 192.5,7.5C 184.684,6.50761 176.684,6.17428 168.5,6.5 Z"/></g>
<g><path style="opacity:0.408" fill="#e4bddb" d="M 210.5,5.5 C 206.366,6.48489 202.032,6.81822 197.5,6.5C 197.5,17.8333 197.5,29.1667 197.5,40.5C 196.505,29.012 196.172,17.3453 196.5,5.5C 201.167,5.5 205.833,5.5 210.5,5.5 Z"/></g>
<g><path style="opacity:0.784" fill="#bf5fa2" d="M 289.5,10.5 C 288.317,9.49551 286.984,8.66218 285.5,8C 279.509,7.50051 273.509,7.33385 267.5,7.5C 267.5,18.1667 267.5,28.8333 267.5,39.5C 269.833,39.5 272.167,39.5 274.5,39.5C 274.187,35.9581 274.521,32.6248 275.5,29.5C 276.423,33.0641 276.756,36.7307 276.5,40.5C 273.167,40.5 269.833,40.5 266.5,40.5C 266.5,28.8333 266.5,17.1667 266.5,5.5C 273.23,5.22643 279.897,5.72643 286.5,7C 288.426,7.42244 289.426,8.5891 289.5,10.5 Z"/></g>
<g><path style="opacity:1" fill="#a72681" d="M 289.5,10.5 C 290.167,10.5 290.5,10.8333 290.5,11.5C 291.833,15.8333 291.833,20.1667 290.5,24.5C 289.167,25.1667 288.167,26.1667 287.5,27.5C 287.082,28.2216 286.416,28.7216 285.5,29C 282.183,29.4983 278.85,29.665 275.5,29.5C 274.521,32.6248 274.187,35.9581 274.5,39.5C 272.167,39.5 269.833,39.5 267.5,39.5C 267.5,28.8333 267.5,18.1667 267.5,7.5C 273.509,7.33385 279.509,7.50051 285.5,8C 286.984,8.66218 288.317,9.49551 289.5,10.5 Z M 281.5,15.5 C 282.234,16.7079 282.567,18.0413 282.5,19.5C 280.262,20.5366 277.929,20.7033 275.5,20C 276.833,18.3333 276.833,16.6667 275.5,15C 277.545,14.5099 279.545,14.6765 281.5,15.5 Z"/></g>
<g><path style="opacity:1" fill="#c466a6" d="M 360.5,5.5 C 364.106,5.21083 367.606,5.54416 371,6.5C 371.5,17.8284 371.667,29.1618 371.5,40.5C 367.833,40.5 364.167,40.5 360.5,40.5C 360.5,28.8333 360.5,17.1667 360.5,5.5 Z"/></g>
<g><path style="opacity:1" fill="#ab3385" d="M 159.5,8.5 C 160.025,12.533 161.358,16.1996 163.5,19.5C 166.263,24.8793 168.263,30.546 169.5,36.5C 169.5,37.8333 169.5,39.1667 169.5,40.5C 169.167,40.5 168.833,40.5 168.5,40.5C 166.369,39.6862 164.036,39.1862 161.5,39C 160.915,37.6976 160.249,36.531 159.5,35.5C 155.167,35.5 150.833,35.5 146.5,35.5C 145.751,36.531 145.085,37.6976 144.5,39C 141.854,39.4974 139.187,39.6641 136.5,39.5C 136.5,38.5 136.5,37.5 136.5,36.5C 136.971,34.4214 137.637,32.4214 138.5,30.5C 140.397,28.3025 141.397,25.6358 141.5,22.5C 141.557,21.391 141.89,20.391 142.5,19.5C 143.473,19.0133 144.473,18.5133 145.5,18C 144.55,15.5679 144.55,13.0679 145.5,10.5C 145.751,8.82972 146.418,7.32972 147.5,6C 151.956,5.13273 156.289,5.46607 160.5,7C 159.944,7.38258 159.611,7.88258 159.5,8.5 Z M 154.5,18.5 C 154.171,21.2282 154.837,23.5615 156.5,25.5C 154.167,26.8333 151.833,26.8333 149.5,25.5C 150.931,24.2196 151.598,22.5529 151.5,20.5C 152.506,20.0623 152.506,19.3957 151.5,18.5C 152.268,17.7375 152.768,16.7375 153,15.5C 153.232,16.7375 153.732,17.7375 154.5,18.5 Z"/></g>
<g><path style="opacity:1" fill="#a72681" d="M 192.5,7.5 C 192.5,9.83333 192.5,12.1667 192.5,14.5C 190.167,14.5 187.833,14.5 185.5,14.5C 185.5,23.1667 185.5,31.8333 185.5,40.5C 182.167,40.5 178.833,40.5 175.5,40.5C 175.5,32.1667 175.5,23.8333 175.5,15.5C 176.043,15.44 176.376,15.1067 176.5,14.5C 174.257,13.5258 171.924,13.1924 169.5,13.5C 169.5,11.5 169.5,9.5 169.5,7.5C 177.167,7.5 184.833,7.5 192.5,7.5 Z"/></g>
<g><path style="opacity:0.902" fill="#ca7cb3" d="M 335.5,5.5 C 339.106,5.21083 342.606,5.54416 346,6.5C 346.5,14.8267 346.666,23.16 346.5,31.5C 350.167,31.5 353.833,31.5 357.5,31.5C 357.5,34.5 357.5,37.5 357.5,40.5C 350.167,40.5 342.833,40.5 335.5,40.5C 335.5,28.8333 335.5,17.1667 335.5,5.5 Z"/></g>
<g><path style="opacity:1" fill="#a6227f" d="M 336.5,7.5 C 339.167,7.5 341.833,7.5 344.5,7.5C 344.5,15.8333 344.5,24.1667 344.5,32.5C 348.5,32.5 352.5,32.5 356.5,32.5C 356.5,34.8333 356.5,37.1667 356.5,39.5C 349.833,39.5 343.167,39.5 336.5,39.5C 336.5,28.8333 336.5,18.1667 336.5,7.5 Z"/></g>
<g><path style="opacity:1" fill="#a6217f" d="M 361.5,7.5 C 364.167,7.5 366.833,7.5 369.5,7.5C 369.5,18.1667 369.5,28.8333 369.5,39.5C 366.833,39.5 364.167,39.5 361.5,39.5C 361.5,28.8333 361.5,18.1667 361.5,7.5 Z"/></g>
<g><path style="opacity:0.267" fill="#dfaed2" d="M 10.5,11.5 C 11.7211,10.5354 13.0544,10.702 14.5,12C 13.0715,12.5791 11.7382,12.4124 10.5,11.5 Z"/></g>
<g><path style="opacity:0.967" fill="#86bde2" d="M 58.5,8.5 C 59.9931,9.31212 60.6598,10.6455 60.5,12.5C 60.6598,14.3545 59.9931,15.6879 58.5,16.5C 58.5,13.8333 58.5,11.1667 58.5,8.5 Z"/></g>
<g><path style="opacity:0.647" fill="#dca1cc" d="M 231.5,9.5 C 230.92,11.7488 229.587,13.4154 227.5,14.5C 228.08,12.2512 229.413,10.5846 231.5,9.5 Z"/></g>
<g><path style="opacity:0.451" fill="#e6badb" d="M 300.5,10.5 C 299.833,11.8333 298.833,12.8333 297.5,13.5C 297.5,11.5 298.5,10.5 300.5,10.5 Z"/></g>
<g><path style="opacity:0.82" fill="#d185ba" d="M 159.5,8.5 C 161.246,11.8716 162.912,15.3716 164.5,19C 164.272,19.3988 163.938,19.5654 163.5,19.5C 161.358,16.1996 160.025,12.533 159.5,8.5 Z"/></g>
<g><path style="opacity:1" fill="#c065a4" d="M 168.5,6.5 C 176.684,6.17428 184.684,6.50761 192.5,7.5C 184.833,7.5 177.167,7.5 169.5,7.5C 169.5,9.5 169.5,11.5 169.5,13.5C 171.924,13.1924 174.257,13.5258 176.5,14.5C 176.376,15.1067 176.043,15.44 175.5,15.5C 167.776,16.6377 165.442,13.6377 168.5,6.5 Z"/></g>
<g><path style="opacity:0.165" fill="#f0d3e8" d="M 257.5,11.5 C 258.906,11.9731 259.573,12.9731 259.5,14.5C 258.094,14.0269 257.427,13.0269 257.5,11.5 Z"/></g>
<g><path style="opacity:1" fill="#c36ba6" d="M 393.5,14.5 C 391.218,13.6103 388.885,13.4436 386.5,14C 385.748,14.6708 385.414,15.5041 385.5,16.5C 384.566,15.4324 384.232,14.099 384.5,12.5C 387.187,12.3359 389.854,12.5026 392.5,13C 393.056,13.3826 393.389,13.8826 393.5,14.5 Z"/></g>
<g><path style="opacity:0.102" fill="#e1afd4" d="M 241.5,14.5 C 240.609,15.1098 239.609,15.4431 238.5,15.5C 239.221,13.6182 240.221,13.2848 241.5,14.5 Z"/></g>
<g><path style="opacity:0.934" fill="#c15fa3" d="M 281.5,15.5 C 279.545,14.6765 277.545,14.5099 275.5,15C 276.833,16.6667 276.833,18.3333 275.5,20C 277.929,20.7033 280.262,20.5366 282.5,19.5C 280.365,21.369 277.698,22.0356 274.5,21.5C 274.5,18.8333 274.5,16.1667 274.5,13.5C 276.527,13.3379 278.527,13.5045 280.5,14C 281.056,14.3826 281.389,14.8826 281.5,15.5 Z"/></g>
<g><path style="opacity:0.063" fill="#e4b3d8" d="M 290.5,11.5 C 291.117,11.6107 291.617,11.944 292,12.5C 292.667,16.1667 292.667,19.8333 292,23.5C 291.617,24.056 291.117,24.3893 290.5,24.5C 291.833,20.1667 291.833,15.8333 290.5,11.5 Z"/></g>
<g><path style="opacity:1" fill="#cb79b3" d="M 384.5,5.5 C 382.229,7.26589 380.063,9.26589 378,11.5C 377.502,14.8168 377.335,18.1501 377.5,21.5C 373.974,13.7711 376.307,8.43781 384.5,5.5 Z"/></g>
<g><path style="opacity:0.078" fill="#e4b4d7" d="M 396.5,13.5 C 395.947,15.5518 394.947,15.8852 393.5,14.5C 394.609,14.4431 395.609,14.1098 396.5,13.5 Z"/></g>
<g><path style="opacity:0.2" fill="#b5dcea" d="M 85.5,18.5 C 85.6716,17.5084 85.3382,16.8417 84.5,16.5C 85.6935,15.7281 86.6935,14.7281 87.5,13.5C 88.1857,12.7082 88.519,13.2082 88.5,15C 88.2849,16.9078 87.2849,18.0744 85.5,18.5 Z"/></g>
<g><path style="opacity:0.612" fill="#d692c2" d="M 154.5,18.5 C 153.732,17.7375 153.232,16.7375 153,15.5C 152.768,16.7375 152.268,17.7375 151.5,18.5C 152.5,10.5 153.5,10.5 154.5,18.5 Z"/></g>
<g><path style="opacity:0.376" fill="#cd7eb6" d="M 206.5,14.5 C 206.5,16.8333 206.5,19.1667 206.5,21.5C 208.167,21.5 209.833,21.5 211.5,21.5C 209.735,22.4614 207.735,22.7947 205.5,22.5C 205.16,19.0275 205.493,16.3609 206.5,14.5 Z"/></g>
<g><path style="opacity:0.098" fill="#f7d8ef" d="M 297.5,13.5 C 297.573,15.0269 296.906,16.0269 295.5,16.5C 295.427,14.9731 296.094,13.9731 297.5,13.5 Z"/></g>
<g><path style="opacity:0.447" fill="#d085bb" d="M 20.5,14.5 C 21.791,14.2627 22.791,14.596 23.5,15.5C 22.4427,16.206 22.7761,16.5393 24.5,16.5C 24.5,16.8333 24.5,17.1667 24.5,17.5C 22.4471,17.5979 20.7804,16.9313 19.5,15.5C 20.1667,15.5 20.5,15.1667 20.5,14.5 Z"/></g>
<g><path style="opacity:1" fill="#be5ca0" d="M 44.5,15.5 C 45.404,16.209 45.7373,17.209 45.5,18.5C 41.5,18.5 37.5,18.5 33.5,18.5C 33.5,17.8333 33.1667,17.5 32.5,17.5C 35.6784,16.2952 39.0117,16.2952 42.5,17.5C 43.7133,17.2528 44.38,16.5862 44.5,15.5 Z"/></g>
<g><path style="opacity:0.998" fill="#7cafdc" d="M 57.5,17.5 C 57.0825,18.2216 56.4158,18.7216 55.5,19C 55.7284,19.3988 56.0618,19.5654 56.5,19.5C 55.1667,19.8333 53.8333,20.1667 52.5,20.5C 52.1667,20.5 51.8333,20.5 51.5,20.5C 51.1667,19.8333 50.8333,19.1667 50.5,18.5C 52.451,18.7733 53.951,18.1066 55,16.5C 55.6708,17.2524 56.5041,17.5858 57.5,17.5 Z"/></g>
<g><path style="opacity:1" fill="#d188b9" d="M 145.5,10.5 C 144.55,13.0679 144.55,15.5679 145.5,18C 144.473,18.5133 143.473,19.0133 142.5,19.5C 142.747,16.1461 143.747,13.1461 145.5,10.5 Z"/></g>
<g><path style="opacity:0.71" fill="#cb7db4" d="M 209.5,14.5 C 211.267,13.35 212.433,14.0167 213,16.5C 213.844,18.4628 213.344,19.7961 211.5,20.5C 211.946,17.9899 211.28,15.9899 209.5,14.5 Z"/></g>
<g><path style="opacity:0.875" fill="#c267a7" d="M 87.5,13.5 C 86.6935,14.7281 85.6935,15.7281 84.5,16.5C 84.1667,16.5 83.8333,16.5 83.5,16.5C 83.44,15.9569 83.1067,15.6236 82.5,15.5C 76.5545,18.1711 70.5545,19.1711 64.5,18.5C 72.2078,17.0423 79.8745,15.3756 87.5,13.5 Z"/></g>
<g><path style="opacity:0.435" fill="#d28cbe" d="M 21.5,21.5 C 23.7857,21.595 25.7857,22.2616 27.5,23.5C 25.1016,23.7406 23.1016,23.0739 21.5,21.5 Z"/></g>
<g><path style="opacity:1" fill="#5aa9da" d="M 83.5,16.5 C 83.8333,16.5 84.1667,16.5 84.5,16.5C 85.3382,16.8417 85.6716,17.5084 85.5,18.5C 78.4129,22.8646 70.7462,25.8646 62.5,27.5C 64.8577,25.8714 67.5243,24.7048 70.5,24C 67.1182,23.8406 63.7849,24.3406 60.5,25.5C 59.8333,25.3333 59.1667,25.1667 58.5,25C 58.7284,24.6012 59.0618,24.4346 59.5,24.5C 60.4916,24.6716 61.1583,24.3382 61.5,23.5C 64.4606,22.6766 67.4606,22.01 70.5,21.5C 71.209,20.596 72.209,20.2627 73.5,20.5C 73.8333,21.8333 74.1667,21.8333 74.5,20.5C 74.8333,20.5 75.1667,20.5 75.5,20.5C 76.1667,20.5 76.5,20.1667 76.5,19.5C 78.1667,18.8333 79.8333,18.1667 81.5,17.5C 81.8333,18.8333 82.1667,18.8333 82.5,17.5C 82.5,16.8333 82.8333,16.5 83.5,16.5 Z"/></g>
<g><path style="opacity:0.008" fill="#e0a9d1" d="M 154.5,18.5 C 155.612,20.5994 156.279,22.9327 156.5,25.5C 154.837,23.5615 154.171,21.2282 154.5,18.5 Z"/></g>
<g><path style="opacity:0.514" fill="#de9ecc" d="M 236.5,18.5 C 235.167,21.8333 235.167,25.1667 236.5,28.5C 233.833,25.1667 233.833,21.8333 236.5,18.5 Z"/></g>
<g><path style="opacity:1" fill="#be60a2" d="M 37.5,19.5 C 42.1408,20.1266 46.8075,20.4599 51.5,20.5C 51.8333,20.5 52.1667,20.5 52.5,20.5C 50.8632,21.3796 49.0299,22.0463 47,22.5C 44.1046,20.8515 41.6046,21.1848 39.5,23.5C 44.1196,24.4933 48.7863,24.8266 53.5,24.5C 53.1583,25.3382 52.4916,25.6716 51.5,25.5C 45.7414,25.7857 40.0748,25.4524 34.5,24.5C 35.7175,23.8386 37.0508,23.1719 38.5,22.5C 37.8728,21.5832 37.5394,20.5832 37.5,19.5 Z"/></g>
<g><path style="opacity:1" fill="#a8257c" d="M 83.5,16.5 C 82.8333,16.5 82.5,16.8333 82.5,17.5C 82.1667,17.5 81.8333,17.5 81.5,17.5C 79.8333,18.1667 78.1667,18.8333 76.5,19.5C 75.8333,19.5 75.5,19.8333 75.5,20.5C 75.1667,20.5 74.8333,20.5 74.5,20.5C 74.1667,20.5 73.8333,20.5 73.5,20.5C 72.209,20.2627 71.209,20.596 70.5,21.5C 67.4606,22.01 64.4606,22.6766 61.5,23.5C 60.8333,23.5 60.1667,23.5 59.5,23.5C 58.209,23.2627 57.209,23.596 56.5,24.5C 55.5,24.5 54.5,24.5 53.5,24.5C 48.7863,24.8266 44.1196,24.4933 39.5,23.5C 41.6046,21.1848 44.1046,20.8515 47,22.5C 49.0299,22.0463 50.8632,21.3796 52.5,20.5C 53.8333,20.1667 55.1667,19.8333 56.5,19.5C 59.1667,19.1667 61.8333,18.8333 64.5,18.5C 70.5545,19.1711 76.5545,18.1711 82.5,15.5C 83.1067,15.6236 83.44,15.9569 83.5,16.5 Z"/></g>
<g><path style="opacity:1" fill="#c266a6" d="M 250.5,18.5 C 251.574,20.2793 252.907,21.946 254.5,23.5C 252.459,24.707 251.126,26.3737 250.5,28.5C 251.627,25.1427 251.627,21.8094 250.5,18.5 Z"/></g>
<g><path style="opacity:0.775" fill="#c66baa" d="M 305.5,18.5 C 304.167,21.8333 304.167,25.1667 305.5,28.5C 302.833,25.1667 302.833,21.8333 305.5,18.5 Z"/></g>
<g><path style="opacity:0.373" fill="#e3bcda" d="M 151.5,20.5 C 151.598,22.5529 150.931,24.2196 149.5,25.5C 149.402,23.4471 150.069,21.7804 151.5,20.5 Z"/></g>
<g><path style="opacity:0.729" fill="#cc7bb5" d="M 294.5,18.5 C 295.358,22.6732 296.024,27.0065 296.5,31.5C 295.778,31.0825 295.278,30.4158 295,29.5C 294.501,25.8484 294.335,22.1817 294.5,18.5 Z"/></g>
<g><path style="opacity:0.2" fill="#ca75b0" d="M 329.5,16.5 C 330.997,18.2897 331.664,20.4563 331.5,23C 331.492,24.7067 331.158,26.2067 330.5,27.5C 330.577,23.7852 330.244,20.1185 329.5,16.5 Z"/></g>
<g><path style="opacity:1" fill="#3186ce" d="M 56.5,24.5 C 57.209,23.596 58.209,23.2627 59.5,23.5C 59.5,23.8333 59.5,24.1667 59.5,24.5C 59.0618,24.4346 58.7284,24.6012 58.5,25C 59.1667,25.1667 59.8333,25.3333 60.5,25.5C 63.7849,24.3406 67.1182,23.8406 70.5,24C 67.5243,24.7048 64.8577,25.8714 62.5,27.5C 61.5,27.5 60.5,27.5 59.5,27.5C 58.5,26.5 57.5,25.5 56.5,24.5 Z"/></g>
<g><path style="opacity:1" fill="#c46aa8" d="M 320.5,19.5 C 321.665,20.4961 322.332,21.8295 322.5,23.5C 321.889,26.4265 320.556,28.7599 318.5,30.5C 320.091,27.0388 320.758,23.3721 320.5,19.5 Z"/></g>
<g><path style="opacity:0.969" fill="#6bb8e1" d="M 53.5,24.5 C 54.5,24.5 55.5,24.5 56.5,24.5C 57.5,25.5 58.5,26.5 59.5,27.5C 57.1667,27.5 54.8333,27.5 52.5,27.5C 52.1667,27.5 51.8333,27.5 51.5,27.5C 51.5,26.8333 51.5,26.1667 51.5,25.5C 52.4916,25.6716 53.1583,25.3382 53.5,24.5 Z"/></g>
<g><path style="opacity:0.69" fill="#d389bd" d="M 227.5,14.5 C 226.746,19.4635 226.413,24.4635 226.5,29.5C 223.85,24.3658 224.183,19.3658 227.5,14.5 Z"/></g>
<g><path style="opacity:0.302" fill="#d591c3" d="M 383.5,25.5 C 385.786,25.595 387.786,26.2616 389.5,27.5C 387.102,27.7406 385.102,27.0739 383.5,25.5 Z"/></g>
<g><path style="opacity:0.02" fill="#dba3cb" d="M 290.5,24.5 C 290.5,26.5 289.5,27.5 287.5,27.5C 288.167,26.1667 289.167,25.1667 290.5,24.5 Z"/></g>
<g><path style="opacity:0.957" fill="#dc9fca" d="M 141.5,22.5 C 141.397,25.6358 140.397,28.3025 138.5,30.5C 138.733,27.4582 139.733,24.7916 141.5,22.5 Z"/></g>
<g><path style="opacity:0.506" fill="#d999c7" d="M 215.5,27.5 C 216.906,27.9731 217.573,28.9731 217.5,30.5C 216.094,30.0269 215.427,29.0269 215.5,27.5 Z"/></g>
<g><path style="opacity:1" fill="#ac3486" d="M 92.5,48.5 C 93.1667,51.1667 94.8333,52.8333 97.5,53.5C 98.8333,54.1667 100.167,54.8333 101.5,55.5C 101.5,56.5 101.5,57.5 101.5,58.5C 94.8333,58.5 88.1667,58.5 81.5,58.5C 79.7392,57.6873 78.0725,56.6873 76.5,55.5C 75.5707,54.6851 74.5707,53.8518 73.5,53C 75.1626,52.7351 76.6626,53.2351 78,54.5C 80.1335,52.8624 82.6335,52.029 85.5,52C 84.7562,50.9614 83.7562,50.4614 82.5,50.5C 82.1667,50.5 81.8333,50.5 81.5,50.5C 81.5,49.1667 80.8333,48.5 79.5,48.5C 78.1667,48.1667 76.8333,47.8333 75.5,47.5C 75.5,46.8333 75.1667,46.5 74.5,46.5C 69.9437,42.1119 65.9437,37.2785 62.5,32C 69.0819,27.3523 75.7485,27.3523 82.5,32C 86.2327,37.3062 89.566,42.8062 92.5,48.5 Z"/></g>
<g><path style="opacity:0.62" fill="#dea9cf" d="M 380.5,30.5 C 378.938,30.7329 377.605,31.3995 376.5,32.5C 376.511,30.9826 377.177,29.8159 378.5,29C 379.816,28.4719 380.483,28.9719 380.5,30.5 Z"/></g>
<g><path style="opacity:1" fill="#ae3c89" d="M 51.5,27.5 C 51.8333,27.5 52.1667,27.5 52.5,27.5C 58.5781,33.0756 64.5781,38.9089 70.5,45C 71.745,45.7914 73.0783,46.2914 74.5,46.5C 75.1667,46.5 75.5,46.8333 75.5,47.5C 76.5383,49.5195 77.8716,49.8528 79.5,48.5C 80.8333,48.5 81.5,49.1667 81.5,50.5C 81.8333,51.8333 82.1667,51.8333 82.5,50.5C 83.7562,50.4614 84.7562,50.9614 85.5,52C 82.6335,52.029 80.1335,52.8624 78,54.5C 76.6626,53.2351 75.1626,52.7351 73.5,53C 74.5707,53.8518 75.5707,54.6851 76.5,55.5C 72.8133,54.824 69.4799,53.324 66.5,51C 61.5817,45.9053 56.5817,41.072 51.5,36.5C 51.5,35.8333 51.1667,35.5 50.5,35.5C 48.4214,35.0293 46.4214,34.3627 44.5,33.5C 43.1667,33.5 41.8333,33.5 40.5,33.5C 38.9505,34.4408 37.2838,35.1075 35.5,35.5C 35.1667,35.5 34.8333,35.5 34.5,35.5C 33.8333,36.1667 33.1667,36.8333 32.5,37.5C 31.1667,38.5 29.8333,39.5 28.5,40.5C 27.7611,40.631 27.0944,40.4643 26.5,40C 28.1412,38.871 29.1412,37.371 29.5,35.5C 35.2181,28.3044 42.5514,25.6377 51.5,27.5 Z"/></g>
<g><path style="opacity:0.765" fill="#ce82b9" d="M 250.5,28.5 C 248.455,33.1681 245.122,34.5014 240.5,32.5C 244.532,32.8144 247.865,31.4811 250.5,28.5 Z"/></g>
<g><path style="opacity:0.377" fill="#c779b1" d="M 207.5,30.5 C 206.833,33.8333 206.167,37.1667 205.5,40.5C 205.334,36.1539 205.501,31.8206 206,27.5C 207.039,28.2438 207.539,29.2438 207.5,30.5 Z"/></g>
<g><path style="opacity:0.027" fill="#68b7df" d="M 44.5,33.5 C 46.4214,34.3627 48.4214,35.0293 50.5,35.5C 51.1667,35.5 51.5,35.8333 51.5,36.5C 51.6309,37.3764 51.2975,38.0431 50.5,38.5C 49.0615,37.9366 47.5615,37.6032 46,37.5C 42.7997,38.0683 39.6331,38.7349 36.5,39.5C 39.4216,37.4688 42.7549,36.3022 46.5,36C 45.5842,35.7216 44.9175,35.2216 44.5,34.5C 44.5,34.1667 44.5,33.8333 44.5,33.5 Z"/></g>
<g><path style="opacity:1" fill="#4694d4" d="M 40.5,33.5 C 41.5676,34.4345 42.901,34.7678 44.5,34.5C 44.9175,35.2216 45.5842,35.7216 46.5,36C 42.7549,36.3022 39.4216,37.4688 36.5,39.5C 33.7198,42.0638 30.7198,44.3971 27.5,46.5C 26.375,45.6522 26.375,44.6522 27.5,43.5C 29.914,42.0892 31.5806,40.0892 32.5,37.5C 33.1667,36.8333 33.8333,36.1667 34.5,35.5C 34.8333,36.8333 35.1667,36.8333 35.5,35.5C 37.2838,35.1075 38.9505,34.4408 40.5,33.5 Z"/></g>
<g><path style="opacity:1" fill="#b2498e" d="M 217.5,30.5 C 219.522,32.5313 221.189,34.8646 222.5,37.5C 222.5,38.5 222.5,39.5 222.5,40.5C 219.15,40.665 215.817,40.4983 212.5,40C 211.014,37.5255 209.681,35.0255 208.5,32.5C 209.117,32.3893 209.617,32.056 210,31.5C 211.773,33.6228 212.94,35.6228 213.5,37.5C 215.765,38.6474 218.098,38.8141 220.5,38C 218.253,36.005 217.253,33.505 217.5,30.5 Z"/></g>
<g><path style="opacity:0.58" fill="#7ad0e9" d="M 32.5,37.5 C 31.5806,40.0892 29.914,42.0892 27.5,43.5C 27.5569,42.391 27.8902,41.391 28.5,40.5C 29.8333,39.5 31.1667,38.5 32.5,37.5 Z"/></g>
<g><path style="opacity:0.666" fill="#c373ac" d="M 146.5,35.5 C 146.714,37.1439 146.38,38.6439 145.5,40C 141.789,40.8253 138.122,40.6586 134.5,39.5C 134.942,38.2613 135.609,37.2613 136.5,36.5C 136.5,37.5 136.5,38.5 136.5,39.5C 139.187,39.6641 141.854,39.4974 144.5,39C 145.085,37.6976 145.751,36.531 146.5,35.5 Z"/></g>
<g><path style="opacity:0.667" fill="#c16eaa" d="M 159.5,35.5 C 160.249,36.531 160.915,37.6976 161.5,39C 164.036,39.1862 166.369,39.6862 168.5,40.5C 165.813,40.6641 163.146,40.4974 160.5,40C 159.62,38.6439 159.286,37.1439 159.5,35.5 Z"/></g>
<g><path style="opacity:0.416" fill="#e7c1de" d="M 169.5,36.5 C 170.339,37.6412 171.006,38.9745 171.5,40.5C 171.03,41.463 170.363,41.463 169.5,40.5C 169.5,39.1667 169.5,37.8333 169.5,36.5 Z"/></g>
<g><path style="opacity:0.055" fill="#e0bcd7" d="M 222.5,37.5 C 224.985,38.7399 224.985,39.7399 222.5,40.5C 222.5,39.5 222.5,38.5 222.5,37.5 Z"/></g>
<g><path style="opacity:0.514" fill="#c973b0" d="M 235.5,39.5 C 239.798,40.1995 244.131,40.5328 248.5,40.5C 247.036,41.1599 245.369,41.4932 243.5,41.5C 240.514,41.6183 237.848,40.9517 235.5,39.5 Z"/></g>
<g><path style="opacity:0.945" fill="#c05c98" d="M 29.5,35.5 C 29.1412,37.371 28.1412,38.871 26.5,40C 27.0944,40.4643 27.7611,40.631 28.5,40.5C 27.8902,41.391 27.5569,42.391 27.5,43.5C 24.2178,46.0276 21.8845,49.3609 20.5,53.5C 19.8333,53.8333 19.1667,54.1667 18.5,54.5C 20.185,48.7961 22.685,43.4627 26,38.5C 27.0391,37.2899 28.2058,36.2899 29.5,35.5 Z"/></g>
<g><path style="opacity:0.776" fill="#64b9df" d="M 190.5,58.5 C 190.167,58.5 189.833,58.5 189.5,58.5C 189.5,55.1667 189.5,51.8333 189.5,48.5C 189.167,47.1667 188.833,47.1667 188.5,48.5C 188.5,51.8333 188.5,55.1667 188.5,58.5C 187.833,58.5 187.167,58.5 186.5,58.5C 186.223,55.5525 186.556,52.7191 187.5,50C 186.552,49.5172 185.552,49.3505 184.5,49.5C 184.237,46.2657 185.737,44.9324 189,45.5C 192.263,44.9324 193.763,46.2657 193.5,49.5C 192.5,49.5 191.5,49.5 190.5,49.5C 190.5,52.5 190.5,55.5 190.5,58.5 Z"/></g>
<g><path style="opacity:0.814" fill="#68bddf" d="M 298.5,49.5 C 299.609,48.71 300.942,48.21 302.5,48C 300.19,47.5034 297.857,47.3367 295.5,47.5C 297.455,45.6742 299.788,45.1742 302.5,46C 303.337,47.0113 303.67,48.1779 303.5,49.5C 301.833,49.5 300.167,49.5 298.5,49.5 Z"/></g>
<g><path style="opacity:0.028" fill="#92c4e6" d="M 339.5,58.5 C 338.167,58.5 336.833,58.5 335.5,58.5C 335.176,54.4454 335.509,50.4454 336.5,46.5C 337.086,46.2907 337.586,45.9574 338,45.5C 339.431,49.6346 339.931,53.968 339.5,58.5 Z"/></g>
<g><path style="opacity:1" fill="#56a1d8" d="M 133.5,58.5 C 130.833,58.5 128.167,58.5 125.5,58.5C 120.705,52.6226 121.871,48.2893 129,45.5C 132.548,45.84 133.714,47.5067 132.5,50.5C 130.484,49.2941 128.484,49.2941 126.5,50.5C 124.879,53.4637 125.712,55.4637 129,56.5C 132.221,53.2718 133.721,53.9385 133.5,58.5 Z"/></g>
<g><path style="opacity:1" fill="#0a85ce" d="M 222.5,47.5 C 223.693,47.9704 224.36,48.9704 224.5,50.5C 224.36,52.0296 223.693,53.0296 222.5,53.5C 222.5,51.5 222.5,49.5 222.5,47.5 Z"/></g>
<g><path style="opacity:0.396" fill="#8bcbe5" d="M 232.5,47.5 C 230.902,49.8567 229.902,52.5234 229.5,55.5C 229.335,52.4816 229.502,49.4816 230,46.5C 231.461,45.1175 232.294,45.4508 232.5,47.5 Z"/></g>
<g><path style="opacity:0.659" fill="#63b8df" d="M 322.5,47.5 C 320.167,47.5 317.833,47.5 315.5,47.5C 315.5,51.1667 315.5,54.8333 315.5,58.5C 315.167,58.5 314.833,58.5 314.5,58.5C 314.334,54.4862 314.501,50.4862 315,46.5C 317.726,45.3086 320.226,45.642 322.5,47.5 Z"/></g>
<g><path style="opacity:0.902" fill="#84c1e3" d="M 358.5,46.5 C 361.275,46.8338 361.941,48.1671 360.5,50.5C 358.929,49.6906 357.262,49.3573 355.5,49.5C 356.609,48.71 357.942,48.21 359.5,48C 358.944,47.6174 358.611,47.1174 358.5,46.5 Z"/></g>
<g><path style="opacity:0.333" fill="#5cb9df" d="M 395.5,54.5 C 395.808,52.076 395.474,49.7427 394.5,47.5C 393.511,51.1073 393.177,54.774 393.5,58.5C 393.167,58.5 392.833,58.5 392.5,58.5C 392.334,54.4862 392.501,50.4862 393,46.5C 393.741,45.3595 394.575,45.3595 395.5,46.5C 396.8,49.3092 396.8,51.9759 395.5,54.5 Z"/></g>
<g><path style="opacity:0.984" fill="#d28bbd" d="M 92.5,48.5 C 94.5,49.8333 96.1667,51.5 97.5,53.5C 94.8333,52.8333 93.1667,51.1667 92.5,48.5 Z"/></g>
<g><path style="opacity:0.031" fill="#8bc9e8" d="M 152.5,58.5 C 151.833,58.5 151.167,58.5 150.5,58.5C 149.432,57.5655 148.099,57.2322 146.5,57.5C 146.5,55.8333 146.5,54.1667 146.5,52.5C 151.833,52.1667 151.833,51.8333 146.5,51.5C 146.5,50.5 146.5,49.5 146.5,48.5C 151.5,47.9969 151.167,47.6636 145.5,47.5C 145.5,51.1667 145.5,54.8333 145.5,58.5C 144.833,58.5 144.167,58.5 143.5,58.5C 143.176,54.4454 143.509,50.4454 144.5,46.5C 146.432,45.4798 148.432,45.3131 150.5,46C 151.956,46.4226 152.456,47.2559 152,48.5C 145.98,49.8808 146.147,50.5474 152.5,50.5C 152.5,51.5 152.5,52.5 152.5,53.5C 146.739,53.7088 146.406,54.5422 151.5,56C 152.252,56.6708 152.586,57.5041 152.5,58.5 Z"/></g>
<g><path style="opacity:0.406" fill="#90cde9" d="M 209.5,47.5 C 207.833,47.5 206.167,47.5 204.5,47.5C 204.5,51.1667 204.5,54.8333 204.5,58.5C 204.167,58.5 203.833,58.5 203.5,58.5C 203.334,54.4862 203.501,50.4862 204,46.5C 206.118,45.2613 207.951,45.5946 209.5,47.5 Z"/></g>
<g><path style="opacity:1" fill="#3a91d3" d="M 395.5,54.5 C 396.568,55.4345 397.901,55.7678 399.5,55.5C 399.5,56.5 399.5,57.5 399.5,58.5C 397.5,58.5 395.5,58.5 393.5,58.5C 393.177,54.774 393.511,51.1073 394.5,47.5C 395.474,49.7427 395.808,52.076 395.5,54.5 Z"/></g>
<g><path style="opacity:0.993" fill="#1980cb" d="M 189.5,58.5 C 189.167,58.5 188.833,58.5 188.5,58.5C 188.5,55.1667 188.5,51.8333 188.5,48.5C 188.833,47.1667 189.167,47.1667 189.5,48.5C 189.5,51.8333 189.5,55.1667 189.5,58.5 Z"/></g>
<g><path style="opacity:0.123" fill="#228bcf" d="M 295.5,47.5 C 297.857,47.3367 300.19,47.5034 302.5,48C 300.942,48.21 299.609,48.71 298.5,49.5C 298.5,49.8333 298.5,50.1667 298.5,50.5C 299.609,51.29 300.942,51.79 302.5,52C 301.207,52.49 299.873,52.6567 298.5,52.5C 298.5,53.8333 298.5,55.1667 298.5,56.5C 300.167,56.5 301.833,56.5 303.5,56.5C 303.5,57.1667 303.5,57.8333 303.5,58.5C 300.833,58.5 298.167,58.5 295.5,58.5C 295.5,54.8333 295.5,51.1667 295.5,47.5 Z"/></g>
<g><path style="opacity:0.737" fill="#8ac8e6" d="M 27.5,43.5 C 26.375,44.6522 26.375,45.6522 27.5,46.5C 25.5179,49.8103 23.1846,52.8103 20.5,55.5C 20.5,54.8333 20.5,54.1667 20.5,53.5C 21.8845,49.3609 24.2178,46.0276 27.5,43.5 Z"/></g>
<g><path style="opacity:0.249" fill="#69bde5" d="M 165.5,48.5 C 164.883,48.3893 164.383,48.056 164,47.5C 163.501,51.1516 163.335,54.8183 163.5,58.5C 163.167,58.5 162.833,58.5 162.5,58.5C 162.334,54.1539 162.501,49.8206 163,45.5C 164.417,46.0779 165.25,47.0779 165.5,48.5 Z"/></g>
<g><path style="opacity:1" fill="#509cd7" d="M 280.5,49.5 C 281.222,49.0825 281.722,48.4158 282,47.5C 282.995,50.1262 283.328,52.7929 283,55.5C 282.751,54.376 282.251,53.376 281.5,52.5C 280.702,52.9569 280.369,53.6236 280.5,54.5C 280.567,55.9587 280.234,57.2921 279.5,58.5C 278.833,58.5 278.167,58.5 277.5,58.5C 276.89,57.609 276.557,56.609 276.5,55.5C 275.404,51.7113 274.737,51.7113 274.5,55.5C 274.5,56.5 274.5,57.5 274.5,58.5C 273.167,58.5 271.833,58.5 270.5,58.5C 271.812,54.5837 272.812,50.5837 273.5,46.5C 274.552,46.3505 275.552,46.5172 276.5,47C 276.031,48.962 276.697,50.7953 278.5,52.5C 279.176,51.3984 279.842,50.3984 280.5,49.5 Z"/></g>
<g><path style="opacity:0.937" fill="#59a3d8" d="M 174.5,58.5 C 173.5,58.5 172.5,58.5 171.5,58.5C 169.873,56.3702 168.04,54.3702 166,52.5C 165.505,54.4727 165.338,56.4727 165.5,58.5C 164.833,58.5 164.167,58.5 163.5,58.5C 163.335,54.8183 163.501,51.1516 164,47.5C 164.383,48.056 164.883,48.3893 165.5,48.5C 167.371,48.8588 168.871,49.8588 170,51.5C 170.333,49.8333 170.667,48.1667 171,46.5C 171.741,45.3595 172.575,45.3595 173.5,46.5C 174.491,50.4454 174.824,54.4454 174.5,58.5 Z"/></g>
<g><path style="opacity:1" fill="#0676c7" d="M 150.5,58.5 C 148.833,58.5 147.167,58.5 145.5,58.5C 145.5,54.8333 145.5,51.1667 145.5,47.5C 151.167,47.6636 151.5,47.9969 146.5,48.5C 146.5,49.5 146.5,50.5 146.5,51.5C 151.833,51.8333 151.833,52.1667 146.5,52.5C 146.5,54.1667 146.5,55.8333 146.5,57.5C 148.099,57.2322 149.432,57.5655 150.5,58.5 Z"/></g>
<g><path style="opacity:0.075" fill="#b6e7f2" d="M 276.5,55.5 C 275.833,55.5 275.167,55.5 274.5,55.5C 274.737,51.7113 275.404,51.7113 276.5,55.5 Z"/></g>
<g><path style="opacity:1" fill="#5ca5da" d="M 209.5,47.5 C 212.041,49.4401 212.041,51.6068 209.5,54C 210.748,55.3997 211.748,56.8997 212.5,58.5C 211.167,58.5 209.833,58.5 208.5,58.5C 208.573,56.9731 207.906,55.9731 206.5,55.5C 206.389,54.8826 206.056,54.3826 205.5,54C 207.044,53.7104 208.377,53.0437 209.5,52C 206.659,53.0116 205.326,51.8449 205.5,48.5C 206.791,48.2627 207.791,48.596 208.5,49.5C 209.338,49.1583 209.672,48.4916 209.5,47.5 Z"/></g>
<g><path style="opacity:0.992" fill="#57a0d9" d="M 382.5,58.5 C 381.5,58.5 380.5,58.5 379.5,58.5C 379.209,57.3509 378.376,56.6842 377,56.5C 375.624,56.6842 374.791,57.3509 374.5,58.5C 373.5,58.5 372.5,58.5 371.5,58.5C 372.73,56.7028 373.396,54.7028 373.5,52.5C 373.823,49.5983 375.156,47.765 377.5,47C 379.308,50.7812 380.974,54.6146 382.5,58.5 Z"/></g>
<g><path style="opacity:0.478" fill="#eac8df" d="M 20.5,53.5 C 20.5,54.1667 20.5,54.8333 20.5,55.5C 19.1667,56.1667 18.1667,57.1667 17.5,58.5C 17.1667,58.5 16.8333,58.5 16.5,58.5C 16.6596,56.847 17.3263,55.5137 18.5,54.5C 19.1667,54.1667 19.8333,53.8333 20.5,53.5 Z"/></g>
<g><path style="opacity:1" fill="#097ccb" d="M 209.5,47.5 C 209.672,48.4916 209.338,49.1583 208.5,49.5C 207.791,48.596 206.791,48.2627 205.5,48.5C 205.326,51.8449 206.659,53.0116 209.5,52C 208.377,53.0437 207.044,53.7104 205.5,54C 206.056,54.3826 206.389,54.8826 206.5,55.5C 206.5,56.5 206.5,57.5 206.5,58.5C 205.833,58.5 205.167,58.5 204.5,58.5C 204.5,54.8333 204.5,51.1667 204.5,47.5C 206.167,47.5 207.833,47.5 209.5,47.5 Z"/></g>
<g><path style="opacity:0.945" fill="#7abbe1" d="M 285.5,58.5 C 284.5,58.5 283.5,58.5 282.5,58.5C 282.34,56.847 281.674,55.5137 280.5,54.5C 280.369,53.6236 280.702,52.9569 281.5,52.5C 282.251,53.376 282.751,54.376 283,55.5C 283.328,52.7929 282.995,50.1262 282,47.5C 281.722,48.4158 281.222,49.0825 280.5,49.5C 280.5,48.5 280.5,47.5 280.5,46.5C 281.5,46.5 282.5,46.5 283.5,46.5C 284.167,50.5 284.833,54.5 285.5,58.5 Z"/></g>
<g><path style="opacity:0.11" fill="#b6deed" d="M 298.5,50.5 C 300.167,50.5 301.833,50.5 303.5,50.5C 303.5,51.5 303.5,52.5 303.5,53.5C 302.022,53.238 300.689,53.5713 299.5,54.5C 300.949,55.1719 302.282,55.8386 303.5,56.5C 301.833,56.5 300.167,56.5 298.5,56.5C 298.5,55.1667 298.5,53.8333 298.5,52.5C 299.873,52.6567 301.207,52.49 302.5,52C 300.942,51.79 299.609,51.29 298.5,50.5 Z"/></g>
<g><path style="opacity:0.129" fill="#c0ebf4" d="M 373.5,52.5 C 373.396,54.7028 372.73,56.7028 371.5,58.5C 371.167,58.5 370.833,58.5 370.5,58.5C 370.992,56.1815 371.992,54.1815 373.5,52.5 Z"/></g>
<g><path style="opacity:0.925" fill="#5eaddd" d="M 322.5,47.5 C 325.666,50.2849 325.999,53.2849 323.5,56.5C 323.591,54.3023 322.925,53.9689 321.5,55.5C 320.22,56.9313 318.553,57.5979 316.5,57.5C 316.5,54.5 316.5,51.5 316.5,48.5C 318.467,48.2606 320.301,48.5939 322,49.5C 322.464,48.9056 322.631,48.2389 322.5,47.5 Z M 321.5,55.5 C 320.167,55.5 318.833,55.5 317.5,55.5C 317.5,53.5 317.5,51.5 317.5,49.5C 321.733,49.7152 323.066,51.7152 321.5,55.5 Z"/></g>
<g><path style="opacity:0.098" fill="#eed6e8" d="M 101.5,55.5 C 102.906,55.9731 103.573,56.9731 103.5,58.5C 102.833,58.5 102.167,58.5 101.5,58.5C 101.5,57.5 101.5,56.5 101.5,55.5 Z"/></g>
<g><path style="opacity:1" fill="#469ad6" d="M 229.5,55.5 C 229.902,52.5234 230.902,49.8567 232.5,47.5C 232.756,51.2693 232.423,54.9359 231.5,58.5C 228.833,58.5 226.167,58.5 223.5,58.5C 222.962,56.8828 222.629,55.2161 222.5,53.5C 223.693,53.0296 224.36,52.0296 224.5,50.5C 224.36,48.9704 223.693,47.9704 222.5,47.5C 223.008,45.7673 223.841,45.434 225,46.5C 225.333,49.5 225.667,52.5 226,55.5C 227.145,56.6843 228.312,56.6843 229.5,55.5 Z"/></g>
<g><path style="opacity:0.949" fill="#2984cd" d="M 322.5,47.5 C 322.631,48.2389 322.464,48.9056 322,49.5C 320.301,48.5939 318.467,48.2606 316.5,48.5C 316.5,51.5 316.5,54.5 316.5,57.5C 318.553,57.5979 320.22,56.9313 321.5,55.5C 322.925,53.9689 323.591,54.3023 323.5,56.5C 323.167,57.1667 322.833,57.8333 322.5,58.5C 320.167,58.5 317.833,58.5 315.5,58.5C 315.5,54.8333 315.5,51.1667 315.5,47.5C 317.833,47.5 320.167,47.5 322.5,47.5 Z"/></g>
<g><path style="opacity:1" fill="#56a0d9" d="M 358.5,46.5 C 358.611,47.1174 358.944,47.6174 359.5,48C 357.942,48.21 356.609,48.71 355.5,49.5C 352.631,52.375 353.131,54.7083 357,56.5C 360.656,53.436 361.822,54.1026 360.5,58.5C 357.833,58.5 355.167,58.5 352.5,58.5C 348.371,50.7856 350.371,46.7856 358.5,46.5 Z"/></g>
</svg>
